ffmpeg started on 2025-06-16 at 16:31:15
Report written to "D:\Convert\FFMetrics\reports\ssim_report-6.txt"
Log level: 32
Command line:
ffmpeg -hide_banner -nostdin -i "G:\\\xc0\xed\xe8\xec\xe5\\[\xd2\xee\xef]\\\xd0\xfb\xf6\xe0\xf0\xfc-\xe2\xe0\xec\xef\xe8\xf0\\\xd2\xc2-1\\[JamClub] Vampire Knight - 09_HEVC.mkv" -i "G:\\\xc0\xed\xe8\xec\xe5\\[\xd2\xee\xef]\\\xd0\xfb\xf6\xe0\xf0\xfc-\xe2\xe0\xec\xef\xe8\xf0\\\xd2\xc2-1\\[JamClub] Vampire Knight - 09.mp4" -lavfi "[0:v]settb=AVTB,setpts=PTS-STARTPTS,format=pix_fmts=yuv420p10,fps=24000/1001,scale=1920:1080:flags=bicubic[main];[1:v]settb=AVTB,setpts=PTS-STARTPTS,format=pix_fmts=yuv420p,fps=24000/1001,scale=1920:1080:flags=bicubic[ref];[main][ref]ssim=eof_action=endall:stats_file='D\\:/Convert/FFMetrics/logs/ssim_logfile-6.txt'" -f null -
Input #0, matroska,webm, from 'G:\Аниме\[Топ]\Рыцарь-вампир\ТВ-1\[JamClub] Vampire Knight - 09_HEVC.mkv':
  Metadata:
    COMPATIBLE_BRANDS: isomiso2avc1mp41
    MAJOR_BRAND     : isom
    MINOR_VERSION   : 512
    ENCODER         : Lavf61.7.100
  Duration: 00:24:22.33, start: -0.001000, bitrate: 1032 kb/s
  Stream #0:0: Video: hevc (Main 10), yuv420p10le(tv, bt709, progressive), 1920x1080 [SAR 1:1 DAR 16:9], 23.98 fps, 23.98 tbr, 1k tbn (default)
      Metadata:
        HANDLER_NAME    : VideoHandler
        VENDOR_ID       : [0][0][0][0]
        ENCODER         : Lavc61.19.100 libx265
        BPS             : 834228
        DURATION        : 00:24:22.252708333
        NUMBER_OF_FRAMES: 43691
        NUMBER_OF_BYTES : 152481611
        _STATISTICS_WRITING_APP: mkvpropedit v66.0.0 ('Josie') 64-bit
        _STATISTICS_WRITING_DATE_UTC: 2025-06-16 08:51:50
        _STATISTICS_TAGS: BPS DURATION NUMBER_OF_FRAMES NUMBER_OF_BYTES
  Stream #0:1(eng): Audio: aac (LC), 48000 Hz, stereo, fltp (default)
      Metadata:
        HANDLER_NAME    : SoundHandler
        VENDOR_ID       : [0][0][0][0]
        ENCODER         : Lavc61.19.100 aac
        BPS             : 194289
        DURATION        : 00:24:22.288000000
        NUMBER_OF_FRAMES: 68546
        NUMBER_OF_BYTES : 35513451
        _STATISTICS_WRITING_APP: mkvpropedit v66.0.0 ('Josie') 64-bit
        _STATISTICS_WRITING_DATE_UTC: 2025-06-16 08:51:50
        _STATISTICS_TAGS: BPS DURATION NUMBER_OF_FRAMES NUMBER_OF_BYTES
Input #1, mov,mp4,m4a,3gp,3g2,mj2, from 'G:\Аниме\[Топ]\Рыцарь-вампир\ТВ-1\[JamClub] Vampire Knight - 09.mp4':
  Metadata:
    major_brand     : isom
    minor_version   : 512
    compatible_brands: isomiso2avc1mp41
    encoder         : Lavf60.16.100
  Duration: 00:24:22.31, start: 0.000000, bitrate: 3714 kb/s
  Stream #1:0[0x1](und): Video: h264 (High) (avc1 / 0x31637661), yuv420p(progressive), 1920x1080 [SAR 1:1 DAR 16:9], 3513 kb/s, 29.88 fps, 23.98 tbr, 90k tbn (default)
      Metadata:
        handler_name    : VideoHandler
        vendor_id       : [0][0][0][0]
  Stream #1:1[0x2](eng): Audio: aac (LC) (mp4a / 0x6134706D), 48000 Hz, stereo, fltp, 191 kb/s (default)
      Metadata:
        handler_name    : SoundHandler
        vendor_id       : [0][0][0][0]
Stream mapping:
  Stream #0:0 (hevc) -> settb:default
  Stream #1:0 (h264) -> settb:default
  ssim:default -> Stream #0:0 (wrapped_avframe)
  Stream #0:1 -> #0:1 (aac (native) -> pcm_s16le (native))
Output #0, null, to 'pipe:':
  Metadata:
    COMPATIBLE_BRANDS: isomiso2avc1mp41
    MAJOR_BRAND     : isom
    MINOR_VERSION   : 512
    encoder         : Lavf61.7.100
  Stream #0:0: Video: wrapped_avframe, yuv420p10le(tv, bt709, progressive), 1920x1080 [SAR 1:1 DAR 16:9], q=2-31, 200 kb/s, 23.98 fps, 23.98 tbn
      Metadata:
        encoder         : Lavc61.19.100 wrapped_avframe
  Stream #0:1(eng): Audio: pcm_s16le, 48000 Hz, stereo, s16, 1536 kb/s (default)
      Metadata:
        HANDLER_NAME    : SoundHandler
        VENDOR_ID       : [0][0][0][0]
        _STATISTICS_TAGS: BPS DURATION NUMBER_OF_FRAMES NUMBER_OF_BYTES
        BPS             : 194289
        DURATION        : 00:24:22.288000000
        NUMBER_OF_FRAMES: 68546
        NUMBER_OF_BYTES : 35513451
        _STATISTICS_WRITING_APP: mkvpropedit v66.0.0 ('Josie') 64-bit
        _STATISTICS_WRITING_DATE_UTC: 2025-06-16 08:51:50
        encoder         : Lavc61.19.100 pcm_s16le
frame=  110 fps=0.0 q=-0.0 size=N/A time=00:00:04.58 bitrate=N/A speed= 8.9x    frame=  270 fps=263 q=-0.0 size=N/A time=00:00:11.26 bitrate=N/A speed=  11x    frame=  480 fps=309 q=-0.0 size=N/A time=00:00:20.02 bitrate=N/A speed=12.9x    frame=  716 fps=347 q=-0.0 size=N/A time=00:00:29.86 bitrate=N/A speed=14.5x    frame=  943 fps=365 q=-0.0 size=N/A time=00:00:39.33 bitrate=N/A speed=15.2x    frame= 1185 fps=383 q=-0.0 size=N/A time=00:00:49.42 bitrate=N/A speed=  16x    frame= 1418 fps=392 q=-0.0 size=N/A time=00:00:59.14 bitrate=N/A speed=16.3x    frame= 1644 fps=398 q=-0.0 size=N/A time=00:01:08.56 bitrate=N/A speed=16.6x    frame= 1837 fps=395 q=-0.0 size=N/A time=00:01:16.61 bitrate=N/A speed=16.5x    frame= 1996 fps=387 q=-0.0 size=N/A time=00:01:23.24 bitrate=N/A speed=16.1x    frame= 2166 fps=382 q=-0.0 size=N/A time=00:01:30.34 bitrate=N/A speed=15.9x    frame= 2354 fps=380 q=-0.0 size=N/A time=00:01:38.18 bitrate=N/A speed=15.9x    frame= 2540 fps=379 q=-0.0 size=N/A time=00:01:45.93 bitrate=N/A speed=15.8x    frame= 2745 fps=380 q=-0.0 size=N/A time=00:01:54.48 bitrate=N/A speed=15.9x    frame= 2884 fps=373 q=-0.0 size=N/A time=00:02:00.28 bitrate=N/A speed=15.5x    frame= 3093 fps=375 q=-0.0 size=N/A time=00:02:09.00 bitrate=N/A speed=15.6x    frame= 3261 fps=372 q=-0.0 size=N/A time=00:02:16.01 bitrate=N/A speed=15.5x    frame= 3456 fps=372 q=-0.0 size=N/A time=00:02:24.14 bitrate=N/A speed=15.5x    frame= 3661 fps=374 q=-0.0 size=N/A time=00:02:32.69 bitrate=N/A speed=15.6x    frame= 3874 fps=375 q=-0.0 size=N/A time=00:02:41.57 bitrate=N/A speed=15.7x    frame= 4076 fps=376 q=-0.0 size=N/A time=00:02:50.00 bitrate=N/A speed=15.7x    frame= 4290 fps=378 q=-0.0 size=N/A time=00:02:58.92 bitrate=N/A speed=15.8x    frame= 4518 fps=381 q=-0.0 size=N/A time=00:03:08.43 bitrate=N/A speed=15.9x    frame= 4715 fps=381 q=-0.0 size=N/A time=00:03:16.65 bitrate=N/A speed=15.9x    frame= 4927 fps=382 q=-0.0 size=N/A time=00:03:25.49 bitrate=N/A speed=15.9x    frame= 5124 fps=382 q=-0.0 size=N/A time=00:03:33.71 bitrate=N/A speed=15.9x    frame= 5339 fps=383 q=-0.0 size=N/A time=00:03:42.68 bitrate=N/A speed=  16x    frame= 5570 fps=386 q=-0.0 size=N/A time=00:03:52.31 bitrate=N/A speed=16.1x    frame= 5751 fps=384 q=-0.0 size=N/A time=00:03:59.86 bitrate=N/A speed=  16x    frame= 5964 fps=386 q=-0.0 size=N/A time=00:04:08.74 bitrate=N/A speed=16.1x    frame= 6164 fps=385 q=-0.0 size=N/A time=00:04:17.09 bitrate=N/A speed=16.1x    frame= 6410 fps=388 q=-0.0 size=N/A time=00:04:27.35 bitrate=N/A speed=16.2x    frame= 6653 fps=391 q=-0.0 size=N/A time=00:04:37.48 bitrate=N/A speed=16.3x    frame= 6897 fps=393 q=-0.0 size=N/A time=00:04:47.66 bitrate=N/A speed=16.4x    frame= 7097 fps=393 q=-0.0 size=N/A time=00:04:56.00 bitrate=N/A speed=16.4x    frame= 7302 fps=393 q=-0.0 size=N/A time=00:05:04.55 bitrate=N/A speed=16.4x    frame= 7495 fps=393 q=-0.0 size=N/A time=00:05:12.60 bitrate=N/A speed=16.4x    frame= 7713 fps=394 q=-0.0 size=N/A time=00:05:21.69 bitrate=N/A speed=16.4x    frame= 7951 fps=395 q=-0.0 size=N/A time=00:05:31.62 bitrate=N/A speed=16.5x    frame= 8168 fps=396 q=-0.0 size=N/A time=00:05:40.67 bitrate=N/A speed=16.5x    frame= 8414 fps=398 q=-0.0 size=N/A time=00:05:50.93 bitrate=N/A speed=16.6x    frame= 8659 fps=400 q=-0.0 size=N/A time=00:06:01.15 bitrate=N/A speed=16.7x    frame= 8914 fps=402 q=-0.0 size=N/A time=00:06:11.78 bitrate=N/A speed=16.8x    frame= 9158 fps=404 q=-0.0 size=N/A time=00:06:21.96 bitrate=N/A speed=16.8x    frame= 9412 fps=406 q=-0.0 size=N/A time=00:06:32.55 bitrate=N/A speed=16.9x    frame= 9652 fps=407 q=-0.0 size=N/A time=00:06:42.56 bitrate=N/A speed=  17x    frame= 9877 fps=407 q=-0.0 size=N/A time=00:06:51.95 bitrate=N/A speed=  17x    frame=10114 fps=409 q=-0.0 size=N/A time=00:07:01.83 bitrate=N/A speed=  17x    frame=10362 fps=410 q=-0.0 size=N/A time=00:07:12.18 bitrate=N/A speed=17.1x    frame=10593 fps=411 q=-0.0 size=N/A time=00:07:21.81 bitrate=N/A speed=17.1x    frame=10853 fps=413 q=-0.0 size=N/A time=00:07:32.66 bitrate=N/A speed=17.2x    frame=11074 fps=413 q=-0.0 size=N/A time=00:07:41.87 bitrate=N/A speed=17.2x    frame=11323 fps=414 q=-0.0 size=N/A time=00:07:52.26 bitrate=N/A speed=17.3x    frame=11543 fps=415 q=-0.0 size=N/A time=00:08:01.43 bitrate=N/A speed=17.3x    frame=11789 fps=416 q=-0.0 size=N/A time=00:08:11.69 bitrate=N/A speed=17.3x    frame=12038 fps=417 q=-0.0 size=N/A time=00:08:22.08 bitrate=N/A speed=17.4x    frame=12281 fps=418 q=-0.0 size=N/A time=00:08:32.22 bitrate=N/A speed=17.4x    frame=12492 fps=418 q=-0.0 size=N/A time=00:08:41.02 bitrate=N/A speed=17.4x    frame=12722 fps=418 q=-0.0 size=N/A time=00:08:50.61 bitrate=N/A speed=17.4x    frame=12953 fps=418 q=-0.0 size=N/A time=00:09:00.24 bitrate=N/A speed=17.5x    frame=13185 fps=419 q=-0.0 size=N/A time=00:09:09.92 bitrate=N/A speed=17.5x    frame=13433 fps=420 q=-0.0 size=N/A time=00:09:20.26 bitrate=N/A speed=17.5x    frame=13658 fps=420 q=-0.0 size=N/A time=00:09:29.65 bitrate=N/A speed=17.5x    frame=13869 fps=420 q=-0.0 size=N/A time=00:09:38.45 bitrate=N/A speed=17.5x    frame=14089 fps=420 q=-0.0 size=N/A time=00:09:47.62 bitrate=N/A speed=17.5x    frame=14328 fps=421 q=-0.0 size=N/A time=00:09:57.59 bitrate=N/A speed=17.6x    frame=14580 fps=422 q=-0.0 size=N/A time=00:10:08.10 bitrate=N/A speed=17.6x    frame=14805 fps=422 q=-0.0 size=N/A time=00:10:17.49 bitrate=N/A speed=17.6x    frame=15058 fps=423 q=-0.0 size=N/A time=00:10:28.04 bitrate=N/A speed=17.6x    frame=15308 fps=424 q=-0.0 size=N/A time=00:10:38.47 bitrate=N/A speed=17.7x    frame=15538 fps=424 q=-0.0 size=N/A time=00:10:48.06 bitrate=N/A speed=17.7x    frame=15765 fps=424 q=-0.0 size=N/A time=00:10:57.53 bitrate=N/A speed=17.7x    frame=15998 fps=425 q=-0.0 size=N/A time=00:11:07.24 bitrate=N/A speed=17.7x    frame=16234 fps=425 q=-0.0 size=N/A time=00:11:17.09 bitrate=N/A speed=17.7x    frame=16484 fps=426 q=-0.0 size=N/A time=00:11:27.52 bitrate=N/A speed=17.8x    frame=16728 fps=427 q=-0.0 size=N/A time=00:11:37.69 bitrate=N/A speed=17.8x    frame=16949 fps=427 q=-0.0 size=N/A time=00:11:46.91 bitrate=N/A speed=17.8x    frame=17195 fps=427 q=-0.0 size=N/A time=00:11:57.17 bitrate=N/A speed=17.8x    frame=17391 fps=427 q=-0.0 size=N/A time=00:12:05.34 bitrate=N/A speed=17.8x    frame=17607 fps=427 q=-0.0 size=N/A time=00:12:14.35 bitrate=N/A speed=17.8x    frame=17841 fps=427 q=-0.0 size=N/A time=00:12:24.11 bitrate=N/A speed=17.8x    frame=18062 fps=427 q=-0.0 size=N/A time=00:12:33.33 bitrate=N/A speed=17.8x    frame=18290 fps=427 q=-0.0 size=N/A time=00:12:42.84 bitrate=N/A speed=17.8x    frame=18510 fps=427 q=-0.0 size=N/A time=00:12:52.02 bitrate=N/A speed=17.8x    frame=18743 fps=428 q=-0.0 size=N/A time=00:13:01.73 bitrate=N/A speed=17.8x    frame=18999 fps=428 q=-0.0 size=N/A time=00:13:12.41 bitrate=N/A speed=17.9x    frame=19229 fps=428 q=-0.0 size=N/A time=00:13:22.00 bitrate=N/A speed=17.9x    frame=19461 fps=429 q=-0.0 size=N/A time=00:13:31.68 bitrate=N/A speed=17.9x    frame=19688 fps=429 q=-0.0 size=N/A time=00:13:41.15 bitrate=N/A speed=17.9x    frame=19930 fps=429 q=-0.0 size=N/A time=00:13:51.24 bitrate=N/A speed=17.9x    frame=20171 fps=430 q=-0.0 size=N/A time=00:14:01.29 bitrate=N/A speed=17.9x    frame=20405 fps=430 q=-0.0 size=N/A time=00:14:11.05 bitrate=N/A speed=17.9x    frame=20633 fps=430 q=-0.0 size=N/A time=00:14:20.56 bitrate=N/A speed=17.9x    frame=20857 fps=430 q=-0.0 size=N/A time=00:14:29.91 bitrate=N/A speed=17.9x    frame=21081 fps=430 q=-0.0 size=N/A time=00:14:39.25 bitrate=N/A speed=17.9x    frame=21318 fps=430 q=-0.0 size=N/A time=00:14:49.13 bitrate=N/A speed=17.9x    frame=21562 fps=431 q=-0.0 size=N/A time=00:14:59.31 bitrate=N/A speed=  18x    frame=21791 fps=431 q=-0.0 size=N/A time=00:15:08.86 bitrate=N/A speed=  18x    frame=22029 fps=431 q=-0.0 size=N/A time=00:15:18.79 bitrate=N/A speed=  18x    frame=22255 fps=431 q=-0.0 size=N/A time=00:15:28.21 bitrate=N/A speed=  18x    frame=22497 fps=432 q=-0.0 size=N/A time=00:15:38.31 bitrate=N/A speed=  18x    frame=22731 fps=432 q=-0.0 size=N/A time=00:15:48.07 bitrate=N/A speed=  18x    frame=22934 fps=432 q=-0.0 size=N/A time=00:15:56.53 bitrate=N/A speed=  18x    frame=23171 fps=432 q=-0.0 size=N/A time=00:16:06.42 bitrate=N/A speed=  18x    frame=23385 fps=432 q=-0.0 size=N/A time=00:16:15.34 bitrate=N/A speed=  18x    frame=23609 fps=432 q=-0.0 size=N/A time=00:16:24.69 bitrate=N/A speed=  18x    frame=23841 fps=432 q=-0.0 size=N/A time=00:16:34.36 bitrate=N/A speed=  18x    frame=24053 fps=432 q=-0.0 size=N/A time=00:16:43.21 bitrate=N/A speed=  18x    frame=24263 fps=431 q=-0.0 size=N/A time=00:16:51.96 bitrate=N/A speed=  18x    frame=24509 fps=432 q=-0.0 size=N/A time=00:17:02.22 bitrate=N/A speed=  18x    frame=24745 fps=432 q=-0.0 size=N/A time=00:17:12.07 bitrate=N/A speed=  18x    frame=24967 fps=432 q=-0.0 size=N/A time=00:17:21.33 bitrate=N/A speed=  18x    frame=25181 fps=432 q=-0.0 size=N/A time=00:17:30.25 bitrate=N/A speed=  18x    frame=25391 fps=432 q=-0.0 size=N/A time=00:17:39.01 bitrate=N/A speed=  18x    frame=25607 fps=432 q=-0.0 size=N/A time=00:17:48.02 bitrate=N/A speed=  18x    frame=25843 fps=432 q=-0.0 size=N/A time=00:17:57.86 bitrate=N/A speed=  18x    frame=26030 fps=431 q=-0.0 size=N/A time=00:18:05.66 bitrate=N/A speed=  18x    frame=26212 fps=431 q=-0.0 size=N/A time=00:18:13.25 bitrate=N/A speed=  18x    frame=26424 fps=430 q=-0.0 size=N/A time=00:18:22.10 bitrate=N/A speed=  18x    frame=26667 fps=431 q=-0.0 size=N/A time=00:18:32.23 bitrate=N/A speed=  18x    frame=26898 fps=431 q=-0.0 size=N/A time=00:18:41.87 bitrate=N/A speed=  18x    frame=27130 fps=431 q=-0.0 size=N/A time=00:18:51.54 bitrate=N/A speed=  18x    frame=27322 fps=431 q=-0.0 size=N/A time=00:18:59.55 bitrate=N/A speed=  18x    frame=27545 fps=431 q=-0.0 size=N/A time=00:19:08.85 bitrate=N/A speed=  18x    frame=27799 fps=431 q=-0.0 size=N/A time=00:19:19.44 bitrate=N/A speed=  18x    frame=28036 fps=431 q=-0.0 size=N/A time=00:19:29.33 bitrate=N/A speed=  18x    frame=28278 fps=432 q=-0.0 size=N/A time=00:19:39.42 bitrate=N/A speed=  18x    frame=28475 fps=431 q=-0.0 size=N/A time=00:19:47.64 bitrate=N/A speed=  18x    frame=28666 fps=431 q=-0.0 size=N/A time=00:19:55.61 bitrate=N/A speed=  18x    frame=28907 fps=431 q=-0.0 size=N/A time=00:20:05.66 bitrate=N/A speed=  18x    frame=29147 fps=431 q=-0.0 size=N/A time=00:20:15.67 bitrate=N/A speed=  18x    frame=29358 fps=431 q=-0.0 size=N/A time=00:20:24.47 bitrate=N/A speed=  18x    frame=29595 fps=431 q=-0.0 size=N/A time=00:20:34.35 bitrate=N/A speed=  18x    frame=29798 fps=431 q=-0.0 size=N/A time=00:20:42.82 bitrate=N/A speed=  18x    frame=30035 fps=431 q=-0.0 size=N/A time=00:20:52.70 bitrate=N/A speed=  18x    frame=30278 fps=432 q=-0.0 size=N/A time=00:21:02.84 bitrate=N/A speed=  18x    frame=30506 fps=432 q=-0.0 size=N/A time=00:21:12.35 bitrate=N/A speed=  18x    frame=30728 fps=432 q=-0.0 size=N/A time=00:21:21.61 bitrate=N/A speed=  18x    frame=30942 fps=432 q=-0.0 size=N/A time=00:21:30.53 bitrate=N/A speed=  18x    frame=31174 fps=432 q=-0.0 size=N/A time=00:21:40.21 bitrate=N/A speed=  18x    frame=31409 fps=432 q=-0.0 size=N/A time=00:21:50.01 bitrate=N/A speed=  18x    frame=31641 fps=432 q=-0.0 size=N/A time=00:21:59.69 bitrate=N/A speed=  18x    frame=31862 fps=432 q=-0.0 size=N/A time=00:22:08.91 bitrate=N/A speed=  18x    frame=32094 fps=432 q=-0.0 size=N/A time=00:22:18.58 bitrate=N/A speed=  18x    frame=32332 fps=432 q=-0.0 size=N/A time=00:22:28.51 bitrate=N/A speed=  18x    frame=32568 fps=432 q=-0.0 size=N/A time=00:22:38.35 bitrate=N/A speed=  18x    frame=32807 fps=433 q=-0.0 size=N/A time=00:22:48.32 bitrate=N/A speed=  18x    frame=33026 fps=433 q=-0.0 size=N/A time=00:22:57.45 bitrate=N/A speed=  18x    frame=33242 fps=432 q=-0.0 size=N/A time=00:23:06.46 bitrate=N/A speed=  18x    frame=33450 fps=432 q=-0.0 size=N/A time=00:23:15.14 bitrate=N/A speed=  18x    frame=33685 fps=432 q=-0.0 size=N/A time=00:23:24.94 bitrate=N/A speed=  18x    frame=33929 fps=433 q=-0.0 size=N/A time=00:23:35.12 bitrate=N/A speed=  18x    frame=34176 fps=433 q=-0.0 size=N/A time=00:23:45.42 bitrate=N/A speed=18.1x    frame=34406 fps=433 q=-0.0 size=N/A time=00:23:55.01 bitrate=N/A speed=18.1x    frame=34614 fps=433 q=-0.0 size=N/A time=00:24:03.69 bitrate=N/A speed=18.1x    frame=34835 fps=433 q=-0.0 size=N/A time=00:24:12.90 bitrate=N/A speed=18.1x    [Parsed_ssim_10 @ 000002866f4d0c80] SSIM Y:0.994948 (22.965225) U:0.995124 (23.119026) V:0.995605 (23.570036) All:0.995087 (23.086177)
[out#0/null @ 000002866c403f00] video:15064KiB audio:274184KiB subtitle:0KiB other streams:0KiB global headers:0KiB muxing overhead: unknown
frame=35059 fps=433 q=-0.0 Lsize=N/A time=00:24:22.25 bitrate=N/A speed=18.1x    
